<svg preserveAspectRatio="none" overflow="visible" style="display: block;" width="28" height="28" viewBox="0 0 28 28" fill="none" xmlns="http://www.w3.org/2000/svg">
<g id="customer-support">
<path id="Vector" d="M19.8333 12.6053C19.8333 12.2019 19.8333 12.0003 19.894 11.8207C20.0704 11.2985 20.5354 11.0959 21.0013 10.8837C21.525 10.6452 21.7868 10.5259 22.0463 10.5049C22.3408 10.4811 22.6359 10.5445 22.8877 10.6858C23.2214 10.8731 23.4542 11.2291 23.6925 11.5185C24.7932 12.8553 25.3434 13.5238 25.5447 14.2609C25.7073 14.8556 25.7073 15.4777 25.5447 16.0725C25.2511 17.1476 24.3232 18.0488 23.6364 18.883C23.2851 19.3096 23.1094 19.523 22.8877 19.6475C22.6359 19.7888 22.3408 19.8522 22.0463 19.8284C21.7868 19.8074 21.525 19.6882 21.0013 19.4496C20.5354 19.2374 20.0704 19.0349 19.894 18.5127C19.8333 18.333 19.8333 18.1314 19.8333 17.7281V12.6053Z" stroke="#FFC127" style="stroke:#FFC127;stroke:color(display-p3 1.0000 0.7569 0.1529);stroke-opacity:1;" stroke-width="1.75"/>
<path id="Vector_2" d="M8.16667 12.6054C8.16667 12.0976 8.15241 11.6412 7.74189 11.2842C7.59258 11.1544 7.39462 11.0642 6.99873 10.8839C6.47501 10.6453 6.21315 10.5261 5.95369 10.5051C5.17523 10.4421 4.75641 10.9735 4.30748 11.5187C3.20687 12.8555 2.65657 13.5239 2.4552 14.261C2.29271 14.8559 2.29271 15.4779 2.4552 16.0727C2.7489 17.1478 3.67677 18.0489 4.36358 18.8832C4.7965 19.409 5.21006 19.8888 5.95369 19.8287C6.21315 19.8077 6.47501 19.6883 6.99873 19.4499C7.39462 19.2695 7.59258 19.1793 7.74189 19.0495C8.15241 18.6925 8.16667 18.2362 8.16667 17.7283V12.6054Z" stroke="#FFC127" style="stroke:#FFC127;stroke:color(display-p3 1.0000 0.7569 0.1529);stroke-opacity:1;" stroke-width="1.75"/>
<path id="Vector_3" d="M5.83333 10.5C5.83333 6.634 9.48968 3.5 14 3.5C18.5103 3.5 22.1667 6.634 22.1667 10.5" stroke="#FFC127" style="stroke:#FFC127;stroke:color(display-p3 1.0000 0.7569 0.1529);stroke-opacity:1;" stroke-width="1.75" stroke-linecap="square" stroke-linejoin="round"/>
<path id="Vector_4" d="M22.1667 19.8328V20.7661C22.1667 22.8279 20.0773 24.4994 17.5 24.4994H15.1667" stroke="#FFC127" style="stroke:#FFC127;stroke:color(display-p3 1.0000 0.7569 0.1529);stroke-opacity:1;" stroke-width="1.75" stroke-linecap="round" stroke-linejoin="round"/>
</g>
</svg>
