<svg preserveAspectRatio="none" overflow="visible" style="display: block;" width="20" height="20" viewBox="0 0 20 20" fill="none" xmlns="http://www.w3.org/2000/svg">
<g id="service">
<path id="Vector" d="M9.99983 4.03465L9.138 3.39001C7.96635 2.51009 6.01591 1.95769 3.7812 3.32846C0.848391 5.12744 0.184766 11.0624 6.94961 16.0695C8.2381 17.0232 8.88233 17.5 10 17.5C11.1177 17.5 11.7619 17.0232 13.0504 16.0695C14.3597 15.1003 15.3908 14.0963 16.1811 13.0944C19.4733 8.91983 18.5839 4.77923 16.2188 3.32846C13.9841 1.95769 12.0337 2.51009 10.862 3.39001L9.99983 4.03465ZM16.1811 13.0944L11.5767 7.87066C11.3882 7.65683 11.0727 7.6108 10.831 7.76187L9.00925 8.9005C8.36817 9.30117 7.53612 9.211 6.99575 8.68225C6.28197 7.98385 6.35399 6.81474 7.14808 6.20922L9.99983 4.03465" stroke="#262626" style="stroke:#262626;stroke:color(display-p3 0.1490 0.1490 0.1490);stroke-opacity:1;" stroke-width="1.5" stroke-linecap="round" stroke-linejoin="round"/>
</g>
</svg>
